<?xml version="1.0"?>
<svg width="512" height="512" xmlns="http://www.w3.org/2000/svg" xmlns:svg="http://www.w3.org/2000/svg" stroke-width="0">
  <g class="layer">
    <title>Layer 1</title>
    <path fill="#777777" d="m226.876999,20.416c-18.832001,0 -37.660004,2.584 -55.921997,7.719999c-28.518005,5.129999 -56,17.362001 -79.571999,36.710001l-62.180004,-36.176001l36.307003,62.408003c-16.078003,20.146996 -27.035004,43.039993 -32.880001,66.938004c-25.350001,72.32399 -9.117001,155.977982 48.700001,213.793991c52.018005,52.019989 124.945999,70.363007 191.723007,55.059998l69.315002,65.649994l-20.040009,-83.824982c12.878021,-6.742004 25.186005,-14.950012 36.692993,-24.602997l139.82901,114.233978l-114.225037,-139.823975c9.778046,-11.640015 18.070007,-24.105011 24.867004,-37.14798l83.112,19.869995l-65.125,-68.76001c15.313995,-66.787003 -3.026001,-139.729996 -55.052002,-191.760002c-17.117004,-17.115997 -36.503998,-30.573997 -57.186005,-40.399998l0.687988,-1.27l-1.564941,0.850002c-27.637024,-12.973001 -57.560028,-19.468002 -87.488007,-19.468002l0.000977,-0.000019l0.000015,0zm-24.806992,23.492001c24.817001,0 49.632996,5.903999 72.186005,17.702999l-97.57402,52.860001l-67.93,-39.520004c27.604988,-20.687996 60.458,-31.040997 93.318001,-31.040997l0,-0.001999l0.000015,0zm94.089996,31.622997c5.630005,4.275002 11.042999,8.972 16.18399,14.112999c54.775024,54.776001 60.339996,139.889999 16.714996,200.840012l-89.795959,-109.920013l56.897003,-105.033997l0,0.000999l-0.000031,0zm-220.492004,33.013l39.792999,68.400002l-51.620998,95.29599c-27.139999,-51.73999 -23.192001,-115.425995 11.827999,-163.696991l0,0.000999zm104.770004,129.659996l110.259964,90.076004c-60.797989,42.130005 -144.679977,36.112 -198.87999,-18.070007l-0.019997,-0.016998l0,-0.001984c-5.169998,-5.170013 -9.891998,-10.617004 -14.187004,-16.283997l102.828003,-55.703018l-0.000992,0l0.000015,0z" id="svg_1"/>
  </g>
</svg>